<svg width="479" height="48" viewBox="0 0 479 48" fill="none" xmlns="http://www.w3.org/2000/svg">
<path d="M72.9232 20.65L74.8732 18.2C73.1732 16.475 70.6232 15.4 68.1232 15.4C62.8982 15.4 58.8732 19.225 58.8732 24.225C58.8732 29.275 62.8482 33.15 67.9982 33.15C70.5232 33.15 73.0982 31.975 74.8982 30.15L72.9232 27.95C71.6232 29.225 69.8482 30 68.1732 30C64.8732 30 62.2982 27.45 62.2982 24.175C62.2982 20.925 64.8732 18.375 68.1732 18.375C69.8982 18.375 71.6732 19.25 72.9232 20.65ZM88.0437 15.4C82.7687 15.4 78.7187 19.2 78.7187 24.25C78.7187 29.275 82.7687 33.15 88.0437 33.15C93.3187 33.15 97.3687 29.275 97.3687 24.25C97.3687 19.225 93.3187 15.4 88.0437 15.4ZM88.0937 18.4C91.2937 18.4 93.9437 20.95 93.9437 24.25C93.9437 27.55 91.2937 30.15 88.0937 30.15C84.8687 30.15 82.1437 27.55 82.1437 24.25C82.1437 20.95 84.8437 18.4 88.0937 18.4ZM103.088 15.5L103.088 33H106.363V21.05L115.363 33H118.538L118.538 15.5H115.288L115.288 27.475L106.263 15.5H103.088ZM123.669 15.5V18.475H129.119V33H132.494V18.475L137.944 18.475V15.5L123.669 15.5ZM143.097 15.5V33H146.447V15.5H143.097ZM153.518 15.5V33H156.793V21.05L165.793 33H168.968V15.5H165.718V27.475L156.693 15.5H153.518ZM179.049 25.7V15.5H175.699V25.7C175.699 30.3 178.699 33.15 183.474 33.15C188.224 33.15 191.149 30.3 191.149 25.7V15.5H187.799V25.7C187.799 28.5 186.124 30.15 183.474 30.15C180.824 30.15 179.049 28.475 179.049 25.7ZM197.872 15.5L197.872 33L210.997 33V30.075H201.222L201.222 25.675H209.722V22.75H201.222V18.425H210.697V15.5L197.872 15.5ZM225.356 15.5L231.156 33H234.606L238.556 19.875L242.456 33H245.931L251.731 15.5L248.281 15.5L244.306 29.275L240.281 15.5H236.981L232.981 29.275L228.956 15.5H225.356ZM256.432 15.5V33H259.782V15.5H256.432ZM264.904 15.5V18.475H270.354V33L273.729 33V18.475H279.179V15.5L264.904 15.5ZM284.331 15.5V33H287.681V25.9H296.406V33H299.756V15.5H296.406V22.975H287.681V15.5H284.331ZM317.137 15.5V33H320.487V26.075H328.412V23.15H320.487V18.425H329.187L329.212 15.5L317.137 15.5ZM346.685 33H350.285L342.71 15.5L339.235 15.5L331.56 33L335.035 33L336.585 29.3H345.135L346.685 33ZM337.785 26.425L340.885 19.075L343.935 26.425H337.785ZM367.428 20.65L369.378 18.2C367.678 16.475 365.128 15.4 362.628 15.4C357.403 15.4 353.378 19.225 353.378 24.225C353.378 29.275 357.353 33.15 362.503 33.15C365.028 33.15 367.603 31.975 369.403 30.15L367.428 27.95C366.128 29.225 364.353 30 362.678 30C359.378 30 356.803 27.45 356.803 24.175C356.803 20.925 359.378 18.375 362.678 18.375C364.403 18.375 366.178 19.25 367.428 20.65ZM374.94 15.5V33H388.065V30.075H378.29V25.675H386.79V22.75H378.29V18.425H387.765V15.5L374.94 15.5ZM402.023 15.5L394.248 15.5V33H402.248C406.248 33 408.723 31.175 408.723 28.175C408.723 25.85 407.323 24.175 404.998 23.75C406.898 23.275 408.048 21.8 408.048 19.875C408.048 17.175 405.748 15.5 402.023 15.5ZM401.848 22.65H397.598V18.4H401.848C403.573 18.375 404.623 19.15 404.623 20.475C404.623 21.85 403.573 22.65 401.848 22.65ZM401.848 30.1H397.598V25.475H401.848C403.973 25.45 405.248 26.325 405.248 27.75C405.248 29.25 403.973 30.125 401.848 30.1ZM422.703 15.4C417.428 15.4 413.378 19.2 413.378 24.25C413.378 29.275 417.428 33.15 422.703 33.15C427.978 33.15 432.028 29.275 432.028 24.25C432.028 19.225 427.978 15.4 422.703 15.4ZM422.753 18.4C425.953 18.4 428.603 20.95 428.603 24.25C428.603 27.55 425.953 30.15 422.753 30.15C419.528 30.15 416.803 27.55 416.803 24.25C416.803 20.95 419.503 18.4 422.753 18.4ZM445.087 15.4C439.812 15.4 435.762 19.2 435.762 24.25C435.762 29.275 439.812 33.15 445.087 33.15C450.362 33.15 454.412 29.275 454.412 24.25C454.412 19.225 450.362 15.4 445.087 15.4ZM445.137 18.4C448.337 18.4 450.987 20.95 450.987 24.25C450.987 27.55 448.337 30.15 445.137 30.15C441.912 30.15 439.187 27.55 439.187 24.25C439.187 20.95 441.887 18.4 445.137 18.4ZM475.782 33L468.632 22.9L475.307 15.5H471.407L463.482 24.05V15.5L460.132 15.5V33H463.482V28.6L466.282 25.5L471.732 33H475.782Z" fill="white"/>
<path opacity="0.01" fill-rule="evenodd" clip-rule="evenodd" d="M0 0V48H48V0H0Z" fill="#1C8FF8" fill-opacity="0.338428"/>
<path d="M26.0636 18.6339V15.8376C26.0636 15.4178 26.0829 15.0927 26.1222 14.863C26.1613 14.6329 26.2503 14.4067 26.3884 14.1834C26.5262 13.9602 26.7495 13.8061 27.0578 13.7207C27.3666 13.6351 27.7768 13.5925 28.289 13.5925H31.0852V8H26.615C24.0284 8 22.1707 8.61367 21.0416 9.84102C19.9126 11.0686 19.3482 12.8769 19.3482 15.2665V18.6338H16V24.2268H19.348V40.4536H26.0636V24.2268H30.5335L31.1243 18.6339H26.0636Z" fill="white"/>
</svg>
